<?xml version="1.0" standalone="no"?>
<!DOCTYPE svg PUBLIC "-//W3C//DTD SVG 20010904//EN"
 "http://www.w3.org/TR/2001/REC-SVG-20010904/DTD/svg10.dtd">
<svg version="1.0" xmlns="http://www.w3.org/2000/svg"
 width="254.000000pt" height="257.000000pt" viewBox="0 0 254.000000 257.000000"
 preserveAspectRatio="xMidYMid meet">

<g transform="translate(0.000000,257.000000) scale(0.100000,-0.100000)"
fill="#000000" stroke="none">
<path d="M1165 2513 c-103 -12 -115 -15 -115 -29 0 -9 11 -14 34 -14 38 0 36
4 51 -133 5 -47 10 -58 23 -55 14 3 17 15 15 63 -1 33 -5 77 -8 98 -5 37 -5
37 30 37 28 0 35 4 35 20 0 20 -3 21 -65 13z"/>
<path d="M1321 2409 c-42 -80 -50 -103 -40 -110 21 -13 25 -11 37 16 20 43
101 32 119 -16 7 -18 18 -29 31 -29 19 0 19 4 -12 120 -29 113 -32 120 -56
120 -21 0 -33 -15 -79 -101z m76 -37 c-33 -6 -40 12 -21 49 l18 34 11 -40 c11
-37 10 -40 -8 -43z"/>
<path d="M833 2441 c-79 -49 -35 -127 64 -114 29 4 42 1 53 -12 13 -15 12 -19
-9 -36 -28 -23 -54 -24 -71 -4 -9 11 -17 12 -32 4 -16 -8 -17 -13 -7 -25 21
-26 48 -35 84 -28 72 13 108 81 65 124 -16 16 -33 20 -79 20 -64 0 -86 14 -56
37 22 16 62 17 67 2 5 -14 38 0 38 17 0 35 -69 44 -117 15z"/>
<path d="M1624 2425 c-29 -20 -54 -76 -54 -120 0 -78 106 -129 156 -74 16 17
16 22 4 29 -19 12 -27 12 -35 0 -10 -16 -52 -12 -70 7 -20 19 -15 71 10 109
11 18 25 24 51 24 31 0 37 -4 47 -30 14 -37 47 -41 47 -6 0 57 -104 98 -156
61z"/>
<path d="M1861 2250 c-73 -94 -79 -108 -56 -117 13 -4 24 2 37 20 13 18 29 27
47 27 l28 0 -8 -57 c-8 -53 -7 -60 14 -77 l22 -18 6 77 c7 81 15 94 59 96 14
0 34 4 44 8 19 7 19 8 -2 23 -19 13 -31 13 -87 3 -36 -7 -65 -10 -65 -8 0 3
13 22 29 42 28 35 28 38 11 48 -15 10 -26 2 -79 -67z"/>
<path d="M708 2242 c-31 -19 -34 -25 -15 -40 18 -16 79 21 71 43 -8 19 -22 19
-56 -3z"/>
<path d="M431 2186 c-11 -13 -4 -27 54 -96 38 -44 71 -80 75 -80 4 0 33 21 64
46 45 37 54 49 45 60 -10 12 -19 8 -56 -22 l-45 -37 -31 39 c-79 96 -92 107
-106 90z"/>
<path d="M250 1975 c-7 -9 -11 -17 -9 -19 69 -54 170 -126 176 -126 4 0 28 28
52 61 34 47 41 63 32 72 -13 12 -21 5 -68 -59 l-18 -24 -72 55 c-40 30 -74 55
-76 55 -3 0 -10 -7 -17 -15z"/>
<path d="M2238 1837 c-88 -63 -95 -71 -79 -96 8 -12 24 -12 93 -4 45 6 84 9
86 8 2 -1 -28 -26 -67 -54 -54 -40 -68 -56 -64 -71 4 -14 14 -20 32 -20 30 0
201 27 207 33 2 2 -2 11 -9 20 -11 16 -18 16 -84 3 -40 -7 -73 -11 -72 -7 0 3
27 25 60 49 51 36 59 46 53 65 -3 12 -8 23 -9 25 -2 2 -36 -1 -76 -7 -40 -5
-75 -8 -77 -6 -2 2 24 22 58 45 42 29 60 46 56 57 -3 8 -6 17 -6 19 0 11 -22
-2 -102 -59z"/>
<path d="M157 1821 c-4 -16 7 -24 62 -46 81 -34 105 -55 96 -84 -13 -41 -37
-43 -120 -9 -64 26 -78 29 -86 17 -5 -8 -9 -17 -9 -20 0 -8 152 -69 173 -69
33 0 54 19 71 60 27 68 16 87 -81 131 -46 22 -87 39 -92 39 -5 0 -11 -9 -14
-19z"/>
<path d="M69 1548 c-1 -2 -7 -35 -13 -75 l-12 -72 66 -11 c36 -6 86 -14 113
-17 43 -5 47 -4 47 15 0 17 -8 22 -46 28 l-46 7 7 49 c6 45 5 50 -11 46 -13
-2 -20 -14 -22 -38 -4 -44 -14 -54 -42 -45 -20 6 -22 11 -15 61 5 45 4 54 -9
54 -9 0 -16 -1 -17 -2z"/>
<path d="M2351 1497 l-104 -10 7 -60 c3 -33 6 -71 6 -83 0 -17 6 -24 20 -24
18 0 19 5 13 65 l-6 65 30 0 c35 0 43 -13 43 -71 0 -32 3 -39 20 -39 18 0 19
5 13 60 -6 59 -5 60 19 60 29 0 38 -20 38 -82 0 -32 4 -38 20 -38 19 0 20 4
15 53 -10 89 -16 117 -23 115 -4 0 -54 -6 -111 -11z"/>
<path d="M2255 1165 c-6 -65 -5 -79 10 -95 21 -23 67 -26 84 -6 11 13 15 12
32 -5 43 -43 84 -10 98 80 6 36 9 66 7 68 -5 6 -176 33 -203 33 -19 0 -22 -7
-28 -75z m99 -12 c-7 -42 -20 -63 -39 -63 -23 0 -34 25 -28 63 5 34 8 37 40
37 34 0 34 0 27 -37z m84 19 c15 -10 6 -66 -13 -82 -16 -14 -49 16 -41 37 3 8
6 23 6 34 0 20 24 25 48 11z"/>
<path d="M322 858 c-12 -20 -22 -43 -22 -52 0 -18 -15 -22 -25 -6 -10 16 -62
12 -79 -6 -24 -23 -19 -60 15 -125 l32 -59 31 19 c17 10 61 35 99 55 60 33 66
39 56 57 -10 20 -10 20 -45 -2 -37 -22 -64 -20 -64 6 0 9 11 37 25 64 20 41
22 51 11 66 -12 16 -14 15 -34 -17z m-36 -124 c19 -35 19 -36 0 -50 -28 -20
-34 -18 -53 20 -31 67 18 95 53 30z"/>
<path d="M2095 738 c-48 -56 -60 -92 -45 -128 17 -40 68 -79 114 -87 33 -5 40
-2 76 36 69 73 70 71 -17 137 -43 33 -83 62 -89 66 -8 5 -23 -4 -39 -24z m92
-69 c29 -23 53 -46 53 -51 0 -5 -11 -20 -25 -34 -19 -19 -31 -23 -47 -18 -33
10 -77 45 -84 66 -6 19 24 78 40 78 5 0 33 -19 63 -41z"/>
<path d="M475 650 c-7 -11 20 -54 54 -84 20 -18 20 -20 5 -38 -24 -25 -33 -23
-76 19 -30 29 -41 34 -50 25 -9 -9 -3 -21 27 -52 l39 -40 -20 -21 -21 -20 -41
45 c-35 38 -43 42 -53 30 -10 -13 -3 -25 44 -71 l56 -56 69 61 c106 94 103 84
41 150 -61 64 -65 67 -74 52z"/>
<path d="M1891 520 c-35 -27 -65 -51 -67 -53 -3 -2 2 -9 9 -16 11 -8 24 -3 61
26 l47 36 22 -22 22 -22 -45 -39 c-35 -30 -42 -41 -33 -51 9 -9 21 -5 51 20
47 36 53 37 69 12 11 -17 7 -24 -37 -57 -38 -29 -47 -41 -39 -51 6 -7 17 -9
23 -5 32 19 115 88 116 95 0 7 -129 177 -134 177 -1 0 -30 -22 -65 -50z"/>
<path d="M760 413 c0 -5 -9 -19 -19 -32 l-18 -23 -42 22 c-53 27 -85 20 -107
-22 -12 -23 -13 -36 -6 -53 13 -28 98 -89 115 -82 19 8 120 175 112 187 -7 11
-35 14 -35 3z m-90 -68 c35 -18 36 -25 12 -55 -18 -22 -19 -22 -45 -5 -29 18
-35 43 -15 63 15 15 13 15 48 -3z"/>
<path d="M1686 387 c-17 -12 -18 -23 -11 -130 4 -64 10 -117 14 -117 3 0 12 4
20 9 11 7 12 28 7 97 l-7 89 61 -64 c53 -56 63 -63 82 -54 21 9 17 14 -62 97
-77 79 -87 86 -104 73z"/>
<path d="M884 331 c-59 -37 -73 -134 -26 -181 79 -79 192 -23 192 94 0 80 -97
131 -166 87z m106 -41 c24 -24 25 -48 6 -94 -15 -37 -44 -51 -81 -42 -33 8
-48 40 -40 83 12 67 73 95 115 53z"/>
<path d="M1448 313 c-67 -13 -78 -18 -78 -35 0 -13 5 -18 14 -15 7 3 35 9 61
12 50 8 65 -1 65 -37 0 -12 -11 -19 -37 -23 -62 -11 -73 -16 -73 -32 0 -12 10
-14 59 -8 57 6 58 6 63 -19 5 -22 1 -25 -36 -31 -63 -10 -76 -15 -76 -31 0
-17 14 -17 97 -3 35 6 63 16 63 23 1 25 -34 216 -40 215 -3 -1 -40 -8 -82 -16z"/>
<path d="M1140 286 c0 -14 41 -26 88 -26 l25 0 -6 -95 c-5 -89 -4 -95 14 -95
23 0 27 19 31 132 3 100 6 98 -94 98 -43 0 -58 -4 -58 -14z"/>
</g>
</svg>
